<?xml version="1.0" standalone="no"?>
<!DOCTYPE svg PUBLIC "-//W3C//DTD SVG 20010904//EN"
 "http://www.w3.org/TR/2001/REC-SVG-20010904/DTD/svg10.dtd">
<svg version="1.0" xmlns="http://www.w3.org/2000/svg"
 width="96" height="96" viewBox="0 0 192.000000 192.000000"
 preserveAspectRatio="xMidYMid meet">

<g transform="translate(0.000000,192.000000) scale(0.100000,-0.100000)"
fill="#000000" stroke="none">
<path d="M50 1787 c-9 -7 -24 -23 -33 -37 -16 -23 -17 -86 -17 -811 0 -433 3
-794 6 -803 6 -14 99 -16 954 -16 855 0 948 2 954 16 3 9 6 371 6 804 l0 789
-31 36 -31 35 -897 0 c-689 -1 -900 -3 -911 -13z m1774 -63 c13 -5 16 -23 16
-95 l0 -89 -880 0 -880 0 0 89 c0 62 4 91 13 94 18 8 1712 8 1731 1z m16 -899
l0 -635 -880 0 -880 0 0 635 0 635 880 0 880 0 0 -635z"/>
<path d="M547 1143 c-20 -19 2 -54 98 -152 l105 -108 -111 -110 c-101 -100
-110 -112 -100 -132 23 -43 51 -26 189 112 l132 132 -133 133 c-124 123 -158
147 -180 125z"/>
<path d="M852 678 c-16 -16 -15 -33 4 -52 13 -14 52 -16 270 -16 157 0 263 4
275 10 21 12 25 40 7 58 -17 17 -539 17 -556 0z"/>
</g>
</svg>
